<mxfile host="app.diagrams.net" modified="2020-12-06T12:15:34.844Z" agent="5.0 (Macintosh; Intel Mac OS X 10_15_7) AppleWebKit/537.36 (KHTML, like Gecko) Chrome/86.0.4240.198 Safari/537.36 OPR/72.0.3815.400" etag="MkMh6JHZkbwSCjUvL_bD" version="13.10.9" type="github">
  <diagram id="prtHgNgQTEPvFCAcTncT" name="Page-1">
    <mxGraphModel dx="2487" dy="3790" grid="1" gridSize="10" guides="1" tooltips="1" connect="1" arrows="1" fold="1" page="1" pageScale="1" pageWidth="4681" pageHeight="3300" background="#114B5F" math="0" shadow="0">
      <root>
        <mxCell id="0" />
        <mxCell id="1" parent="0" />
        <mxCell id="70Aoskz2j759LiOCqX9b-44" value="" style="group;fontColor=#E4FDE1;" vertex="1" connectable="0" parent="1">
          <mxGeometry x="2320" y="260" width="520" height="1380" as="geometry" />
        </mxCell>
        <mxCell id="70Aoskz2j759LiOCqX9b-40" value="" style="group;fontColor=#E4FDE1;" vertex="1" connectable="0" parent="70Aoskz2j759LiOCqX9b-44">
          <mxGeometry y="260" width="520" height="1120" as="geometry" />
        </mxCell>
        <mxCell id="70Aoskz2j759LiOCqX9b-2" value="&lt;font&gt;&lt;span style=&quot;font-size: 19px&quot;&gt;useContext&lt;/span&gt;&lt;br&gt;&lt;br&gt;Aksessere context&lt;br&gt;&lt;/font&gt;" style="rounded=1;whiteSpace=wrap;html=1;fillColor=#F45B69;strokeColor=none;fontColor=#E4FDE1;" vertex="1" parent="70Aoskz2j759LiOCqX9b-40">
          <mxGeometry width="200" height="120" as="geometry" />
        </mxCell>
        <mxCell id="70Aoskz2j759LiOCqX9b-19" value="&lt;font&gt;&lt;font style=&quot;font-size: 19px&quot;&gt;useMemo&lt;br&gt;&lt;/font&gt;&lt;br&gt;&lt;br&gt;Optimalisering&amp;nbsp;&lt;br&gt;Bevare referanser&amp;nbsp;&lt;br&gt;&lt;span style=&quot;font-family: &amp;#34;helvetica&amp;#34;&quot;&gt;Dependancy array&lt;/span&gt;&lt;br&gt;&lt;/font&gt;" style="whiteSpace=wrap;html=1;rounded=1;fillColor=#F45B69;strokeColor=none;fontColor=#E4FDE1;" vertex="1" parent="70Aoskz2j759LiOCqX9b-40">
          <mxGeometry y="400" width="200" height="120" as="geometry" />
        </mxCell>
        <mxCell id="70Aoskz2j759LiOCqX9b-23" value="&lt;font style=&quot;font-size: 19px&quot;&gt;useRef&lt;/font&gt;&lt;br&gt;&lt;br&gt;muterbar&amp;nbsp;&lt;br&gt;bevart på tvers av renders&amp;nbsp;" style="whiteSpace=wrap;html=1;rounded=1;fillColor=#F45B69;fontColor=#E4FDE1;strokeColor=none;" vertex="1" parent="70Aoskz2j759LiOCqX9b-40">
          <mxGeometry y="800" width="200" height="120" as="geometry" />
        </mxCell>
        <mxCell id="70Aoskz2j759LiOCqX9b-53" value="" style="group" vertex="1" connectable="0" parent="70Aoskz2j759LiOCqX9b-40">
          <mxGeometry x="320" y="200" width="200" height="920" as="geometry" />
        </mxCell>
        <mxCell id="70Aoskz2j759LiOCqX9b-15" value="&lt;span style=&quot;font-family: &amp;#34;helvetica&amp;#34; ; font-size: 19px ; font-style: normal ; font-weight: 400 ; letter-spacing: normal ; text-align: center ; text-indent: 0px ; text-transform: none ; word-spacing: 0px ; display: inline ; float: none&quot;&gt;useEffect&lt;br&gt;&lt;/span&gt;&lt;br style=&quot;font-family: &amp;#34;helvetica&amp;#34; ; font-size: 19px ; font-style: normal ; font-weight: 400 ; letter-spacing: normal ; text-align: center ; text-indent: 0px ; text-transform: none ; word-spacing: 0px&quot;&gt;&lt;span style=&quot;font-family: &amp;#34;helvetica&amp;#34; ; font-style: normal ; font-weight: 400 ; letter-spacing: normal ; text-align: center ; text-indent: 0px ; text-transform: none ; word-spacing: 0px ; font-size: 12px&quot;&gt;&amp;nbsp;Lifesycle events&lt;br&gt;Håndtere sideeffekter&amp;nbsp;&amp;nbsp;&lt;br&gt;Dependancy array&lt;br&gt;&lt;/span&gt;" style="whiteSpace=wrap;html=1;rounded=1;fillColor=#F45B69;strokeColor=none;labelBackgroundColor=none;fontColor=#E4FDE1;" vertex="1" parent="70Aoskz2j759LiOCqX9b-53">
          <mxGeometry width="200" height="120" as="geometry" />
        </mxCell>
        <mxCell id="70Aoskz2j759LiOCqX9b-16" value="" style="edgeStyle=orthogonalEdgeStyle;rounded=0;orthogonalLoop=1;jettySize=auto;html=1;strokeColor=#028090;labelBackgroundColor=#114B5F;fontColor=#E4FDE1;" edge="1" parent="70Aoskz2j759LiOCqX9b-53" source="70Aoskz2j759LiOCqX9b-2" target="70Aoskz2j759LiOCqX9b-15">
          <mxGeometry relative="1" as="geometry" />
        </mxCell>
        <mxCell id="70Aoskz2j759LiOCqX9b-20" value="" style="edgeStyle=orthogonalEdgeStyle;rounded=0;orthogonalLoop=1;jettySize=auto;html=1;strokeColor=#028090;labelBackgroundColor=#114B5F;fontColor=#E4FDE1;" edge="1" parent="70Aoskz2j759LiOCqX9b-53" source="70Aoskz2j759LiOCqX9b-15" target="70Aoskz2j759LiOCqX9b-19">
          <mxGeometry relative="1" as="geometry" />
        </mxCell>
        <mxCell id="70Aoskz2j759LiOCqX9b-21" value="&lt;font style=&quot;font-size: 19px&quot;&gt;useCallback&lt;br&gt;&lt;/font&gt;&lt;br&gt;Som useMemo for funksjoner&lt;br&gt;Sende funksjoner til optimaliserte children&amp;nbsp;" style="whiteSpace=wrap;html=1;rounded=1;fillColor=#F45B69;strokeColor=none;fontColor=#E4FDE1;" vertex="1" parent="70Aoskz2j759LiOCqX9b-53">
          <mxGeometry y="400" width="200" height="120" as="geometry" />
        </mxCell>
        <mxCell id="70Aoskz2j759LiOCqX9b-22" value="" style="edgeStyle=orthogonalEdgeStyle;rounded=0;orthogonalLoop=1;jettySize=auto;html=1;fontSize=19;strokeColor=#028090;labelBackgroundColor=#114B5F;fontColor=#E4FDE1;" edge="1" parent="70Aoskz2j759LiOCqX9b-53" source="70Aoskz2j759LiOCqX9b-19" target="70Aoskz2j759LiOCqX9b-21">
          <mxGeometry relative="1" as="geometry" />
        </mxCell>
        <mxCell id="70Aoskz2j759LiOCqX9b-24" value="" style="edgeStyle=orthogonalEdgeStyle;rounded=0;orthogonalLoop=1;jettySize=auto;html=1;fontSize=19;strokeColor=#028090;labelBackgroundColor=#114B5F;fontColor=#E4FDE1;" edge="1" parent="70Aoskz2j759LiOCqX9b-53" source="70Aoskz2j759LiOCqX9b-21" target="70Aoskz2j759LiOCqX9b-23">
          <mxGeometry relative="1" as="geometry" />
        </mxCell>
        <mxCell id="70Aoskz2j759LiOCqX9b-25" value="...&lt;br&gt;useImperativeHandle&lt;br&gt;useLayoutEffect&lt;br&gt;useDebugValue&lt;br&gt;&lt;br&gt;&lt;font style=&quot;font-size: 16px&quot;&gt;Custom hooks!&lt;/font&gt;" style="whiteSpace=wrap;html=1;rounded=1;strokeColor=#028090;fillColor=#F45B69;fontColor=#E4FDE1;" vertex="1" parent="70Aoskz2j759LiOCqX9b-53">
          <mxGeometry y="800" width="200" height="120" as="geometry" />
        </mxCell>
        <mxCell id="70Aoskz2j759LiOCqX9b-26" value="" style="edgeStyle=orthogonalEdgeStyle;rounded=0;orthogonalLoop=1;jettySize=auto;html=1;fontSize=19;strokeColor=#028090;labelBackgroundColor=#114B5F;fontColor=#E4FDE1;" edge="1" parent="70Aoskz2j759LiOCqX9b-53" source="70Aoskz2j759LiOCqX9b-23" target="70Aoskz2j759LiOCqX9b-25">
          <mxGeometry relative="1" as="geometry" />
        </mxCell>
        <mxCell id="70Aoskz2j759LiOCqX9b-47" value="&lt;font style=&quot;font-size: 19px&quot;&gt;useReducer&lt;br&gt;&lt;/font&gt;&lt;br&gt;Kompleks state&lt;br&gt;actions/dispatch pattern" style="whiteSpace=wrap;html=1;rounded=1;fontColor=#E4FDE1;strokeColor=none;fillColor=#F45B69;" vertex="1" parent="70Aoskz2j759LiOCqX9b-44">
          <mxGeometry x="320" y="60" width="200" height="120" as="geometry" />
        </mxCell>
        <mxCell id="70Aoskz2j759LiOCqX9b-48" value="" style="edgeStyle=orthogonalEdgeStyle;rounded=0;sketch=0;orthogonalLoop=1;jettySize=auto;html=1;strokeColor=#028090;labelBackgroundColor=#114B5F;fontColor=#E4FDE1;" edge="1" parent="1" source="70Aoskz2j759LiOCqX9b-41" target="70Aoskz2j759LiOCqX9b-47">
          <mxGeometry relative="1" as="geometry" />
        </mxCell>
        <mxCell id="70Aoskz2j759LiOCqX9b-41" value="&lt;font style=&quot;font-size: 19px&quot;&gt;useState&lt;br&gt;&lt;/font&gt;&lt;br&gt;Applikasjonens minne&lt;br&gt;Immutable&lt;br&gt;Trigger rerender" style="whiteSpace=wrap;html=1;rounded=1;fontColor=#E4FDE1;strokeColor=none;fillColor=#F45B69;" vertex="1" parent="1">
          <mxGeometry x="2320" y="120" width="200" height="120" as="geometry" />
        </mxCell>
        <mxCell id="70Aoskz2j759LiOCqX9b-49" value="" style="endArrow=classic;html=1;strokeColor=#028090;rounded=0;labelBackgroundColor=#114B5F;fontColor=#E4FDE1;" edge="1" parent="1">
          <mxGeometry width="50" height="50" relative="1" as="geometry">
            <mxPoint x="2640" y="380" as="sourcePoint" />
            <mxPoint x="2420" y="520" as="targetPoint" />
            <Array as="points">
              <mxPoint x="2420" y="380" />
            </Array>
          </mxGeometry>
        </mxCell>
        <mxCell id="70Aoskz2j759LiOCqX9b-51" value="&lt;blockquote style=&quot;margin: 0 0 0 40px ; border: none ; padding: 0px&quot;&gt;&lt;font style=&quot;font-size: 25px&quot;&gt;Rules&lt;/font&gt;&lt;/blockquote&gt;&lt;blockquote style=&quot;margin: 0 0 0 40px ; border: none ; padding: 0px&quot;&gt;&lt;span style=&quot;font-size: 19px&quot;&gt;&lt;br&gt;&lt;/span&gt;&lt;/blockquote&gt;&lt;blockquote style=&quot;margin: 0px 0px 0px 40px ; border: none ; padding: 0px ; font-size: 22px&quot;&gt;&lt;span&gt;&lt;font style=&quot;font-size: 22px&quot;&gt;&lt;b&gt;Only call hooks at the top level&lt;/b&gt;&lt;/font&gt;&lt;/span&gt;&lt;/blockquote&gt;&lt;blockquote style=&quot;margin: 0px 0px 0px 40px ; border: none ; padding: 0px ; font-size: 22px&quot;&gt;&lt;span&gt;&lt;font style=&quot;font-size: 17px&quot;&gt;- bevare rekkefølgen hooks blir kalt i&lt;/font&gt;&lt;/span&gt;&lt;/blockquote&gt;&lt;blockquote style=&quot;margin: 0px 0px 0px 40px ; border: none ; padding: 0px ; font-size: 22px&quot;&gt;&lt;span style=&quot;font-size: 19px&quot;&gt;&lt;br&gt;&lt;/span&gt;&lt;/blockquote&gt;&lt;blockquote style=&quot;margin: 0px 0px 0px 40px ; border: none ; padding: 0px&quot;&gt;&lt;span&gt;&lt;b&gt;&lt;font style=&quot;font-size: 21px&quot;&gt;Only Call Hooks from React Functions&lt;/font&gt;&lt;/b&gt;&lt;/span&gt;&lt;/blockquote&gt;&lt;blockquote style=&quot;margin: 0px 0px 0px 40px ; border: none ; padding: 0px&quot;&gt;&lt;span&gt;&lt;font style=&quot;font-size: 16px&quot;&gt;- useXyz&lt;/font&gt;&lt;/span&gt;&lt;/blockquote&gt;" style="rounded=1;whiteSpace=wrap;html=1;sketch=0;strokeColor=#028090;fillColor=#F45B69;fontColor=#E4FDE1;align=left;" vertex="1" parent="1">
          <mxGeometry x="930" y="1500" width="440" height="320" as="geometry" />
        </mxCell>
        <mxCell id="70Aoskz2j759LiOCqX9b-52" value="&lt;blockquote style=&quot;margin: 0 0 0 40px ; border: none ; padding: 0px&quot;&gt;&lt;span style=&quot;font-size: 25px&quot;&gt;&lt;b&gt;Hooks &lt;/b&gt;er&lt;b&gt;&amp;nbsp;&lt;/b&gt;&lt;/span&gt;&lt;i style=&quot;font-size: 25px&quot;&gt;Funksjoner&lt;/i&gt;&lt;/blockquote&gt;&lt;blockquote style=&quot;margin: 0 0 0 40px ; border: none ; padding: 0px&quot;&gt;&lt;span style=&quot;font-size: 18px&quot;&gt;Statefull logikk&amp;nbsp;&lt;/span&gt;&lt;br&gt;&lt;/blockquote&gt;&lt;blockquote style=&quot;margin: 0 0 0 40px ; border: none ; padding: 0px&quot;&gt;&lt;span style=&quot;font-size: 18px&quot;&gt;&lt;br&gt;&lt;/span&gt;&lt;/blockquote&gt;&lt;blockquote style=&quot;margin: 0px 0px 0px 40px ; border: none ; padding: 0px ; font-size: 18px&quot;&gt;&lt;font style=&quot;font-size: 18px&quot;&gt;- Gjenbruk&lt;br&gt;&lt;/font&gt;&lt;/blockquote&gt;&lt;blockquote style=&quot;margin: 0 0 0 40px ; border: none ; padding: 0px&quot;&gt;&lt;blockquote style=&quot;margin: 0px 0px 0px 40px ; border: none ; padding: 0px ; font-size: 18px&quot;&gt;&lt;font style=&quot;font-size: 18px&quot;&gt;Dele (statefull)&amp;nbsp; funksjonalitet mellom funksjoner (hooks og komponenter)&lt;/font&gt;&lt;/blockquote&gt;&lt;/blockquote&gt;&lt;blockquote style=&quot;margin: 0px 0px 0px 40px ; border: none ; padding: 0px ; font-size: 18px&quot;&gt;&lt;font style=&quot;font-size: 18px&quot;&gt;- Leselighet&lt;/font&gt;&lt;/blockquote&gt;&lt;blockquote style=&quot;margin: 0 0 0 40px ; border: none ; padding: 0px&quot;&gt;&lt;blockquote style=&quot;margin: 0px 0px 0px 40px ; border: none ; padding: 0px ; font-size: 18px&quot;&gt;&lt;font style=&quot;font-size: 18px&quot;&gt;Separere markup og funk&lt;/font&gt;&lt;/blockquote&gt;&lt;blockquote style=&quot;margin: 0px 0px 0px 40px ; border: none ; padding: 0px ; font-size: 18px&quot;&gt;Tydelig, veldefinert pattern&lt;/blockquote&gt;&lt;blockquote style=&quot;margin: 0px 0px 0px 40px ; border: none ; padding: 0px ; font-size: 18px&quot;&gt;&lt;br&gt;&lt;/blockquote&gt;&lt;i&gt;Class-components er ut&lt;/i&gt;&lt;/blockquote&gt;" style="rounded=1;whiteSpace=wrap;html=1;sketch=0;strokeColor=#028090;fillColor=#F45B69;fontColor=#E4FDE1;align=left;" vertex="1" parent="1">
          <mxGeometry x="910" y="350" width="440" height="320" as="geometry" />
        </mxCell>
      </root>
    </mxGraphModel>
  </diagram>
</mxfile>
